<svg width="783" height="304" viewBox="0 0 783 304" fill="none" xmlns="http://www.w3.org/2000/svg">
<path fill-rule="evenodd" clip-rule="evenodd" d="M87.3657 14.3868C101.904 7.54651 117.703 2.94224 134.318 1.01733L126.699 18.2807C123.946 17.4477 121.025 17 118 17C110.05 17 102.823 20.0921 97.4546 25.1392L87.3657 14.3868ZM84.5352 15.7546C34.4369 40.6096 0 92.2831 0 152C0 164.64 1.54291 176.92 4.45066 188.661L31.8406 193.671C34.3518 185.189 42.2032 179 51.5 179C52.9013 179 54.2697 179.141 55.5919 179.408L102.648 72.7798C93.8756 67.5445 88 57.9584 88 47C88 46.4706 88.0137 45.9444 88.0408 45.4218L70.3013 42.8815C69.4812 42.7641 68.9116 42.0041 69.029 41.1841C69.1465 40.364 69.9064 39.7944 70.7265 39.9118L88.3451 42.4347C89.2216 36.6937 91.7255 31.488 95.3712 27.3032L84.5352 15.7546ZM5.8786 194.005C10.7467 210.971 18.4895 226.721 28.5461 240.694L39.4164 216.062C34.3143 212.333 31 206.303 31 199.5C31 199.2 31.0065 198.901 31.0192 198.604L5.8786 194.005Z" fill="#073752"/>
<path fill-rule="evenodd" clip-rule="evenodd" d="M143.406 0.238842L133.978 21.6038C142.403 26.9155 148 36.3041 148 47C148 48.3357 147.913 49.6509 147.744 50.9404L236.164 63.6019C236.504 62.1803 237.349 60.955 238.499 60.127L225.697 35.7219C225.312 34.9883 225.595 34.0816 226.329 33.6968C227.062 33.3119 227.969 33.5947 228.354 34.3283L241.316 59.0386C241.541 59.0131 241.769 59 242 59C243.051 59 244.038 59.2698 244.896 59.7439L257.197 42.2837C229.889 16.0941 192.824 0 152 0C149.116 0 146.251 0.0803191 143.406 0.238842ZM244.02 70.6517C243.389 70.8772 242.709 71 242 71C241.565 71 241.14 70.9536 240.731 70.8655L200.322 128.226C200.755 129.056 201 129.999 201 131C201 132.254 200.615 133.419 199.957 134.382L213.181 148.475C213.748 149.079 213.717 150.029 213.113 150.595C212.509 151.162 211.56 151.132 210.993 150.528L197.699 136.36C196.888 136.769 195.971 137 195 137C194.722 137 194.449 136.981 194.18 136.944L181.024 155.62C180.547 156.297 179.611 156.459 178.934 155.982C178.257 155.505 178.095 154.569 178.572 153.892L191.346 135.759C189.92 134.662 189 132.938 189 131C189 129.893 189.3 128.856 189.823 127.966L136.219 70.8366C132.695 73.5342 128.555 75.468 124.046 76.3905C122.215 76.7652 120.324 76.973 118.388 76.9975C118.259 76.9992 118.13 77 118 77H118C115.802 77 113.66 76.7637 111.597 76.315C111.061 76.1986 110.531 76.0678 110.006 75.9231L62.9697 182.506C68.4185 186.191 72.0005 192.427 72.0005 199.5C72.0005 200.007 71.9821 200.509 71.946 201.006L212.46 226.706C213.029 225.447 213.752 224.272 214.605 223.205L169.281 181.517C167.452 183.066 165.085 184 162.5 184C156.701 184 152 179.299 152 173.5C152 171.23 152.721 169.129 153.945 167.412L137.208 152.017C136.598 151.457 136.559 150.508 137.119 149.898C137.68 149.288 138.629 149.249 139.239 149.809L156.016 165.241C157.802 163.837 160.053 163 162.5 163C168.299 163 173 167.701 173 173.5C173 175.633 172.365 177.617 171.272 179.273L216.683 221.04C219.579 218.524 223.362 217 227.5 217C228.762 217 229.991 217.142 231.172 217.41L266.756 145.817C262.66 142.815 260 137.968 260 132.5C260 126.167 263.569 120.667 268.805 117.901L244.02 70.6517ZM271.586 116.744L246.516 68.9515C246.723 68.7151 246.911 68.4624 247.08 68.1955L268.906 71.3211C269.727 71.4385 270.486 70.8689 270.604 70.0488C270.721 69.2288 270.152 68.4688 269.332 68.3514L247.993 65.2958C247.998 65.1978 248 65.0992 248 65C248 63.8365 247.669 62.7503 247.096 61.8306L259.369 44.409C273.458 58.4695 284.803 75.2798 292.528 93.9664L281.234 116.689C279.735 116.241 278.146 116 276.5 116C274.789 116 273.138 116.261 271.586 116.744ZM284.137 147.13L295.175 168.174C295.56 168.907 296.467 169.19 297.201 168.805C297.934 168.42 298.217 167.514 297.832 166.78L286.668 145.496C290.523 142.476 293 137.777 293 132.5C293 127.923 291.137 123.782 288.128 120.793L296.349 104.253C301.313 119.268 304 135.32 304 152C304 184.143 294.023 213.956 276.997 238.51L243.969 232.469C243.688 227.907 241.552 223.845 238.306 221.03L274.188 148.839C274.944 148.945 275.716 149 276.5 149C279.256 149 281.854 148.325 284.137 147.13ZM236.228 66.6416C236.545 67.7603 237.179 68.7458 238.027 69.4955L198.252 125.956C197.315 125.351 196.199 125 195 125C193.883 125 192.836 125.306 191.94 125.838L138.51 68.8942C142.747 64.924 145.83 59.7385 147.205 53.8938L236.228 66.6416ZM152.672 303.999C152.776 303.998 152.879 303.998 152.983 303.997L152.05 304C152.258 304 152.465 303.999 152.672 303.999Z" fill="#80B4D1"/>
<path fill-rule="evenodd" clip-rule="evenodd" d="M238.834 245.491C235.878 248.286 231.889 250 227.5 250C226.329 250 225.185 249.878 224.083 249.646L212.293 273.365C211.31 275.344 208.909 276.15 206.931 275.167C204.953 274.184 204.146 271.783 205.13 269.805L216.892 246.139C213.29 243.112 211 238.573 211 233.5C211 232.838 211.039 232.185 211.115 231.543L70.9773 205.912C68.2855 214.093 60.5825 220 51.5 220C49.838 220 48.2223 219.802 46.6749 219.429L34.9433 246.012C34.6712 246.629 34.2623 247.143 33.7681 247.534C61.6338 281.977 104.245 304 152 304C192.648 304 229.569 288.044 256.843 262.055L238.834 245.491ZM258.998 259.961C264.322 254.683 269.259 249.014 273.76 243.001L243.519 237.47C242.997 239.583 242.068 241.536 240.819 243.241L258.998 259.961ZM28.5462 240.693C18.4898 226.72 10.747 210.971 5.87891 194.005L31.0193 198.604C31.0065 198.901 31 199.2 31 199.5C31 206.303 34.3143 212.333 39.4164 216.062L28.5462 240.693Z" fill="#2A6789"/>
<path d="M431.039 116.943C427.667 121.774 422.95 125.397 416.889 127.812C410.873 130.182 403.855 131.367 395.834 131.367C387.722 131.367 380.521 129.476 374.232 125.693C367.943 121.865 363.067 116.442 359.604 109.424C356.186 102.406 354.431 94.2708 354.34 85.0195V76.3379C354.34 61.3444 357.826 49.7233 364.799 41.4746C371.817 33.2259 381.661 29.1016 394.33 29.1016C404.721 29.1016 413.083 31.7676 419.418 37.0996C425.753 42.3861 429.626 49.9056 431.039 59.6582H417.914C415.453 46.4876 407.615 39.9023 394.398 39.9023C385.603 39.9023 378.926 43.0013 374.369 49.1992C369.857 55.3516 367.579 64.2839 367.533 75.9961V84.1309C367.533 95.2962 370.085 104.183 375.189 110.791C380.294 117.354 387.198 120.635 395.902 120.635C400.824 120.635 405.131 120.088 408.822 118.994C412.514 117.9 415.567 116.055 417.982 113.457V91.1035H394.945V80.4395H431.039V116.943ZM486.752 67.3828C484.838 67.0638 482.764 66.9043 480.531 66.9043C472.237 66.9043 466.609 70.4362 463.646 77.5V130H451V56.0352H463.305L463.51 64.5801C467.657 57.972 473.536 54.668 481.146 54.668C483.607 54.668 485.476 54.987 486.752 55.625V67.3828ZM541.371 130C540.642 128.542 540.049 125.944 539.594 122.207C533.715 128.314 526.697 131.367 518.539 131.367C511.247 131.367 505.255 129.316 500.561 125.215C495.912 121.068 493.588 115.827 493.588 109.492C493.588 101.79 496.505 95.8203 502.338 91.582C508.217 87.2982 516.465 85.1562 527.084 85.1562H539.389V79.3457C539.389 74.9251 538.067 71.416 535.424 68.8184C532.781 66.1751 528.884 64.8535 523.734 64.8535C519.223 64.8535 515.44 65.9928 512.387 68.2715C509.333 70.5501 507.807 73.3073 507.807 76.543H495.092C495.092 72.8516 496.391 69.2969 498.988 65.8789C501.632 62.4154 505.186 59.681 509.652 57.6758C514.164 55.6706 519.109 54.668 524.486 54.668C533.008 54.668 539.685 56.8099 544.516 61.0938C549.346 65.332 551.853 71.1882 552.035 78.6621V112.705C552.035 119.495 552.901 124.896 554.633 128.906V130H541.371ZM520.385 120.361C524.35 120.361 528.109 119.336 531.664 117.285C535.219 115.234 537.794 112.568 539.389 109.287V94.1113H529.477C513.982 94.1113 506.234 98.6458 506.234 107.715C506.234 111.68 507.556 114.779 510.199 117.012C512.842 119.245 516.238 120.361 520.385 120.361ZM634.34 93.8379C634.34 105.094 631.765 114.163 626.615 121.045C621.465 127.926 614.493 131.367 605.697 131.367C596.719 131.367 589.656 128.519 584.506 122.822V158.438H571.859V56.0352H583.412L584.027 64.2383C589.177 57.8581 596.332 54.668 605.492 54.668C614.379 54.668 621.397 58.0176 626.547 64.7168C631.742 71.416 634.34 80.7357 634.34 92.6758V93.8379ZM621.693 92.4023C621.693 84.0625 619.916 77.4772 616.361 72.6465C612.807 67.8158 607.93 65.4004 601.732 65.4004C594.076 65.4004 588.334 68.7956 584.506 75.5859V110.928C588.288 117.673 594.076 121.045 601.869 121.045C607.93 121.045 612.738 118.652 616.293 113.867C619.893 109.036 621.693 101.882 621.693 92.4023ZM663.119 64.9902C668.725 58.1087 676.016 54.668 684.994 54.668C700.626 54.668 708.51 63.4863 708.646 81.123V130H696V81.0547C695.954 75.7227 694.724 71.7806 692.309 69.2285C689.939 66.6764 686.225 65.4004 681.166 65.4004C677.064 65.4004 673.464 66.4941 670.365 68.6816C667.266 70.8691 664.851 73.7402 663.119 77.2949V130H650.473V25H663.119V64.9902ZM426.322 205.27H394.33V294H381.273V205.27H349.35V194.469H426.322V205.27ZM428.92 256.334C428.92 249.088 430.333 242.571 433.158 236.783C436.029 230.995 439.994 226.529 445.053 223.385C450.157 220.24 455.967 218.668 462.484 218.668C472.556 218.668 480.691 222.154 486.889 229.127C493.132 236.1 496.254 245.374 496.254 256.949V257.838C496.254 265.038 494.864 271.51 492.084 277.252C489.35 282.949 485.408 287.392 480.258 290.582C475.154 293.772 469.275 295.367 462.621 295.367C452.595 295.367 444.46 291.881 438.217 284.908C432.019 277.936 428.92 268.707 428.92 257.223V256.334ZM441.635 257.838C441.635 266.041 443.526 272.626 447.309 277.594C451.137 282.561 456.241 285.045 462.621 285.045C469.047 285.045 474.151 282.538 477.934 277.525C481.716 272.467 483.607 265.403 483.607 256.334C483.607 248.222 481.671 241.66 477.797 236.646C473.969 231.588 468.865 229.059 462.484 229.059C456.241 229.059 451.205 231.542 447.377 236.51C443.549 241.477 441.635 248.587 441.635 257.838ZM547.865 231.383C545.951 231.064 543.878 230.904 541.645 230.904C533.35 230.904 527.722 234.436 524.76 241.5V294H512.113V220.035H524.418L524.623 228.58C528.77 221.972 534.649 218.668 542.26 218.668C544.721 218.668 546.589 218.987 547.865 219.625V231.383ZM587.855 285.045C592.367 285.045 596.309 283.678 599.682 280.943C603.054 278.209 604.923 274.791 605.287 270.689H617.25C617.022 274.928 615.564 278.961 612.875 282.789C610.186 286.617 606.586 289.671 602.074 291.949C597.608 294.228 592.868 295.367 587.855 295.367C577.784 295.367 569.763 292.018 563.793 285.318C557.868 278.574 554.906 269.368 554.906 257.701V255.582C554.906 248.382 556.228 241.979 558.871 236.373C561.514 230.768 565.297 226.415 570.219 223.316C575.186 220.217 581.042 218.668 587.787 218.668C596.081 218.668 602.963 221.152 608.432 226.119C613.946 231.087 616.885 237.535 617.25 245.465H605.287C604.923 240.68 603.1 236.76 599.818 233.707C596.583 230.608 592.572 229.059 587.787 229.059C581.361 229.059 576.371 231.383 572.816 236.031C569.307 240.634 567.553 247.311 567.553 256.061V258.453C567.553 266.975 569.307 273.538 572.816 278.141C576.326 282.743 581.339 285.045 587.855 285.045ZM644.115 228.99C649.721 222.109 657.012 218.668 665.99 218.668C681.622 218.668 689.506 227.486 689.643 245.123V294H676.996V245.055C676.951 239.723 675.72 235.781 673.305 233.229C670.935 230.676 667.221 229.4 662.162 229.4C658.061 229.4 654.46 230.494 651.361 232.682C648.262 234.869 645.847 237.74 644.115 241.295V294H631.469V189H644.115V228.99Z" fill="#2A6789"/>
</svg>
